<?xml version="1.0" encoding="utf-8"?>
<!-- Generator: Adobe Illustrator 28.0.0, SVG Export Plug-In . SVG Version: 6.00 Build 0)  -->
<svg version="1.1" id="Layer_1" xmlns="http://www.w3.org/2000/svg" xmlns:xlink="http://www.w3.org/1999/xlink" x="0px" y="0px"
	 viewBox="0 0 388.6 362.3" style="enable-background:new 0 0 388.6 362.3;" xml:space="preserve">
<style type="text/css">
	.st0{fill:#EF4347;}
</style>
<g>
	<path class="st0" d="M245.9,141.3c-4.1-3.2-9.5-3.2-14.3-1.9c-6.4,1.7-12.1,5.9-16.9,10.3c-6.2,5.7-10.8,12.8-13.6,20.7
		c-3.4-0.2-6.8-0.7-10.1-1.5c-0.1-3.2-0.4-6.5-1-9.6c-1.2-6.6-3.2-13.3-6.8-19c-4.7-7.5-16-19.7-26-13.9c-3.6,2.1-5.2,6.2-5.3,10.2
		c-0.2,6,2.9,12,6.1,16.9c6.3,9.7,15.6,16.9,26.6,20.4c-0.1,3.2-0.4,6.5-1.2,9.9c-2.1,0.2-4.3,0.4-6.4,0.8
		c-6.7,1.2-13.3,3.3-19.4,6.3c-6,2.9-11.9,6.6-15.9,12c-3.6,5-4.7,10.9-1.1,16.2c0.3,0.4,0.6,0.8,1,1c4.1,4.6,10.3,5.7,16.2,4
		c6.2-1.7,11.4-6.1,16-10.4c6.8-6.5,11.6-14.7,14.5-23.6c0.4,0,0.9,0,1.3,0c0.1,0,0.1,0,0.1,0c0,0,0,0,0.1,0c0.2,0,0.4,0,0.6,0
		c1,0.1,2,0.2,3,0.3c1.6,0.2,3.2,0.6,4.8,0.9c0.2,4.1,0.7,8.2,1.6,12.2c1.5,6.6,3.8,13.1,7.4,18.9c4.8,7.8,17.7,21.1,26.8,11.2
		c3.2-3.4,3.8-8.7,2.9-13.1c-1.3-6.6-5.1-12.4-9.4-17.5c-6.2-7.4-13.9-13.1-22.9-16.4c0.1-2.4,0.3-4.7,0.7-7.4
		c0.2-0.9,0.4-1.6,0.6-2.5c3.2-0.1,6.4-0.3,9.5-0.7c8-1.2,16.4-3.5,22.9-8.5c4.9-3.7,9.6-8.6,11.1-14.7
		C250.6,148.7,249.5,144,245.9,141.3z M175.3,162.3c-4.3-2.9-7.8-6.4-10.7-10.6c-1.8-2.6-3.5-5.3-4.7-8.2c-0.9-2.2-1.4-3.9-1.5-6.1
		c0-0.1,0-0.8,0-0.9c0-0.4,0.1-0.8,0.1-1.2c0-0.2,0.1-0.5,0.2-0.7c0,0,0.3-0.7,0.4-0.9c0.1-0.1,0.1-0.2,0.2-0.4
		c0.2-0.3,0.5-0.5,0.7-0.8c0,0,0,0,0,0c0,0,0,0,0.1-0.1c0.1-0.1,0.6-0.4,0.8-0.5c0.2-0.1,0.6-0.2,0.7-0.3c0,0,0,0,0,0
		c0.2,0,0.4-0.1,0.6-0.1c0.2,0,0.6,0,0.7,0c0.4,0,0.9,0.1,1.3,0.2c1.4,0.3,3.4,1.4,4.9,2.5c3.7,2.8,7,6.6,9.4,10.6
		c0.1,0.2,0.3,0.5,0.4,0.7c0,0.1,0.1,0.2,0.1,0.2c0.3,0.6,0.5,1.1,0.8,1.7c0.6,1.3,1.1,2.6,1.6,4c0.5,1.5,1,3,1.4,4.5
		c0.2,0.8,0.4,1.7,0.6,2.5c0,0.1,0,0.2,0.1,0.3c0,0,0-0.1,0-0.2c0,0.2,0.1,0.4,0.1,0.6c0.1,0.5,0.2,0.9,0.3,1.4
		c0.4,2.2,0.6,4.3,0.8,6.5C181.2,165.7,178.1,164.3,175.3,162.3z M179,196.2c-2.2,4.2-5,8.1-8.4,11.6c-3.6,3.7-8,7.6-12.8,9.5
		c-4.2,1.7-9.1,1.9-11.8-1.9c-1.2-1.7-1.4-3.4-0.8-5.4c0.6-1.9,2.2-3.9,3.7-5.5c2-2.1,4.3-3.8,6.8-5.2c0.8-0.5,1.7-1,2.5-1.4
		c0.2-0.1,0.3-0.2,0.5-0.3c0.1,0,0.1-0.1,0.3-0.1c0.6-0.3,1.1-0.6,1.7-0.8c2.6-1.2,5.2-2.3,7.9-3.2c1.5-0.5,3-1,4.6-1.4
		c0.8-0.2,1.5-0.4,2.3-0.6c0,0,0.2,0,0.3-0.1c0.1,0,0.4-0.1,0.4-0.1c0.4-0.1,0.9-0.2,1.3-0.3c1.3-0.2,2.6-0.4,3.9-0.5
		C180.8,192.4,180,194.2,179,196.2z M198.2,184.8c-2.7-0.6-5.5-1-8.3-1.1c0.5-2.7,0.9-5.4,1-8.2c2.7,0.6,5.5,1,8.3,1.2
		C198.7,179.4,198.4,182.1,198.2,184.8z M210.2,196.4c3.4,2,7.5,5.5,10.4,8.6c3.9,4.2,7.6,9,9.4,14.5c0.4,1.1,0.6,1.9,0.7,3
		c0.1,0.5,0.1,0.9,0.1,1.4c0,0.9,0.1,0.8,0,1.5c-0.1,0.4-0.1,0.8-0.2,1.2c-0.1,0.2-0.1,0.5-0.2,0.7c0,0,0,0,0,0c0,0,0,0,0,0.1
		c-0.1,0.3-0.3,0.7-0.4,1c-0.1,0.2-0.2,0.3-0.3,0.5c0,0.1-0.1,0.1-0.2,0.2c-0.2,0.2-0.4,0.4-0.6,0.7c-0.1,0.1-0.3,0.2-0.4,0.3
		c-0.2,0.1-0.4,0.3-0.6,0.4c0.4-0.2-0.1,0-0.2,0c-0.7,0.2-0.6,0.2-1.4,0.3c-0.5,0-1.4-0.2-2.2-0.5c-1.1-0.5-2.1-1-3-1.7
		c-3.6-2.7-6.6-6.3-8.9-10.2c-0.3-0.5-0.6-1-0.9-1.5c0-0.1,0-0.1-0.1-0.1c0,0,0,0,0,0c-0.2-0.4-0.3-0.7-0.5-1
		c-0.6-1.3-1.2-2.6-1.7-4c-1.2-3.2-2.2-6.4-3-9.7c0-0.2-0.1-0.3-0.1-0.5c0,0,0,0,0-0.2c-0.1-0.4-0.2-0.9-0.3-1.3c-0.2-1-0.3-2-0.5-3
		c-0.1-1.1-0.2-2.1-0.3-3.2C206.7,194.4,208.5,195.3,210.2,196.4z M243.3,150.9c0,0.2-0.1,0.4-0.1,0.6c0,0-0.1,0.3-0.1,0.5
		c-1.6,4.9-5.9,8.8-10.1,11.6c-0.5,0.3-1.1,0.7-1.6,1c-0.1,0.1-0.6,0.3-0.7,0.4c-0.3,0.1-0.5,0.3-0.8,0.4c-1.5,0.7-3.1,1.3-4.6,1.9
		c-5.4,1.8-11.3,2.9-17.2,3.2c0.4-1,0.7-2,1.2-3c2.1-4.2,4.7-7.8,8.1-11.3c3.8-3.9,8.5-7.7,13.6-9.7c2.2-0.9,4.3-1.4,6.8-1.4
		c0.1,0,0.1,0,0.2,0c0,0,0,0,0.1,0c0.3,0,0.5,0.1,0.8,0.1c0.4,0.1,0.8,0.1,1.2,0.2c0.1,0,0.1,0,0.1,0c0,0,0,0,0,0
		c0.2,0.1,0.4,0.2,0.6,0.2c0.2,0.1,0.7,0.4,0.8,0.4c0.3,0.2,0.5,0.4,0.8,0.6c0.1,0.1,0.1,0.1,0.2,0.1c0,0,0,0,0,0.1
		c0.2,0.2,0.3,0.5,0.5,0.7c0,0,0.2,0.6,0.3,0.8c0,0.1,0,0.1,0.1,0.2c0,0.1,0.1,0.4,0.1,0.5c0,0.4,0.1,0.7,0.1,1.1
		C243.4,149.4,243.3,150.7,243.3,150.9z"/>
	<path class="st0" d="M144.9,164.3c-1.7-6.7-7.9-12-14.9-12.5c-7.1-0.5-14,3.3-17,9.9c-2.9,6.6-1.3,14.2,3.7,19.2
		c5.7,5.7,14.9,6.1,21.5,1.6C144,178.4,146.6,171.2,144.9,164.3z M134.5,177.3c-3.5,2.4-8.5,2.6-11.9,0.1c-3.8-2.7-5.4-7.2-4.1-11.7
		c1.1-4,5-7.1,9.3-7.4c4.2-0.3,8.5,2.2,10.2,6C140.1,169,138.6,174.3,134.5,177.3z"/>
	<path class="st0" d="M184.5,229.7c-7.1-0.5-14,3.3-17,9.9c-2.9,6.6-1.3,14.2,3.7,19.2c5.7,5.7,14.9,6.1,21.5,1.6
		c5.8-4.2,8.4-11.4,6.6-18.3C197.7,235.4,191.5,230.2,184.5,229.7z M189,255.1c-3.5,2.4-8.5,2.6-11.9,0.1c-3.8-2.7-5.4-7.2-4.1-11.7
		c1.1-4,5-7.1,9.3-7.4c4.2-0.3,8.5,2.2,10.2,6C194.6,246.9,193.1,252.2,189,255.1z"/>
	<path class="st0" d="M262.4,175.2c-7.1-0.5-14,3.3-17,9.9c-2.9,6.6-1.3,14.2,3.7,19.2c5.7,5.7,14.9,6.1,21.5,1.6
		c5.8-4.2,8.4-11.4,6.6-18.3C275.5,180.9,269.3,175.7,262.4,175.2z M266.9,200.6c-3.5,2.4-8.5,2.6-11.9,0.1
		c-3.8-2.7-5.4-7.2-4.1-11.7c1.1-4,5-7.1,9.3-7.4c4.2-0.3,8.5,2.2,10.2,6C272.5,192.4,271,197.7,266.9,200.6z"/>
	<path class="st0" d="M216.1,128.1c5.8-4.2,8.4-11.4,6.6-18.3c-1.7-6.7-7.9-12-14.9-12.5c-7.1-0.5-14,3.3-17,9.9
		c-2.9,6.6-1.3,14.2,3.7,19.2C200.3,132.1,209.5,132.6,216.1,128.1z M196.3,111.2c1.1-4,5-7.1,9.3-7.4c4.2-0.3,8.5,2.2,10.2,6
		c2.1,4.8,0.6,10.1-3.5,13.1c-3.5,2.4-8.5,2.6-11.9,0.1C196.6,120.1,195,115.7,196.3,111.2z"/>
	<path class="st0" d="M308.1,101.5c-16.4-23.4-43.7-37.1-76.9-38.4c-32.8-1.3-67.7,9.7-98,30.9c-62.8,44-86.5,118.8-52.8,166.9
		c16.4,23.4,43.7,37.1,76.9,38.4c1.8,0.1,3.5,0.1,5.3,0.1c31.3,0,64-10.9,92.7-31c30.3-21.2,52.5-50.2,62.5-81.5
		C328,155.2,324.5,124.9,308.1,101.5z M312,185c-9.6,30.1-31,57.9-60.2,78.3c-29.2,20.4-62.7,31-94.2,29.8
		c-31.2-1.2-56.9-13.9-72.1-35.7C53.7,212.1,76.7,141,136.7,99c27.6-19.4,59.1-29.9,89.2-29.9c1.7,0,3.4,0,5,0.1
		c31.2,1.2,56.9,13.9,72.1,35.7C318.3,126.8,321.5,155.2,312,185z"/>
	<path class="st0" d="M363.1,63C337.3,26.2,295.5,4,245.3,0.5C195.4-3,143.1,12.4,98.1,43.9C5,109.1-27.6,223.7,25.4,299.4
		c29.1,41.5,78,62.9,131.7,62.9c44.1,0,91.3-14.4,133.3-43.8c45-31.5,77.4-75.4,91.2-123.5C395.4,146.6,388.8,99.7,363.1,63z
		 M375.6,193.3c-13.4,46.8-44.9,89.4-88.8,120.1c-90.3,63.2-205.3,55.4-256.4-17.5c-51-72.9-19.1-183.7,71.2-246.9
		C141.4,21.1,187,6.2,231.3,6.2c4.5,0,9.1,0.2,13.6,0.5C293.2,10,333.3,31.3,358,66.5C382.7,101.7,388.9,146.7,375.6,193.3z"/>
	<polygon class="st0" points="95.8,113.7 79.4,97.2 103.2,106.3 111.8,97.7 89.9,75.7 84.4,81.2 100.6,97.5 77,88.6 68.4,97.2 
		90.3,119.2 	"/>
	<path class="st0" d="M176.9,54.9l11.7-3.4l3.6,5l9.4-2.7l-20.3-26.5l-10.1,2.9l-3.4,33.3l8.8-2.5L176.9,54.9z M177.5,35l7,11
		l-7.5,2.2L177.5,35z"/>
	<path class="st0" d="M213.4,52.7l-0.9-11.8l4-0.2c1.7-0.1,2.8,0.5,3.4,1.8c0.6,1.3,1,2.8,1.2,4.5c0,0.2,0,0.3,0.1,0.5
		c0,0.2,0,0.3,0.1,0.5c0.1,0.8,0.2,1.6,0.4,2.3c0.1,0.7,0.3,1.4,0.6,1.9l9.4-0.7c-0.3-0.8-0.6-1.6-0.8-2.5c-0.2-0.9-0.4-1.8-0.5-2.8
		c0-0.1-0.1-0.1-0.1-0.2c0-0.1,0-0.1,0-0.2c-0.4-2.3-1-4.3-1.9-6.2c-0.9-1.9-2.8-2.8-5.9-2.7c2-0.5,3.7-1.4,5.1-2.6
		c1.4-1.3,2-3.1,1.8-5.7c-0.2-3.2-1.6-5.3-4.1-6.2c-2.5-0.9-5.2-1.2-8.1-1.1c-0.1,0-0.3,0-0.4,0c-0.1,0-0.3,0-0.4,0l-13.8,1l2.3,31
		L213.4,52.7z M215.3,27.8c1.3-0.1,2.5,0.1,3.4,0.6c0.9,0.5,1.5,1.3,1.6,2.5c0.1,1.3-0.3,2.3-1.1,2.8c-0.9,0.5-1.8,0.8-2.9,0.9
		c-0.1,0-0.3,0-0.4,0c-0.1,0-0.3,0-0.4,0l-3.4,0.2l-0.5-6.8L215.3,27.8z"/>
	<polygon class="st0" points="134.7,81.1 131.1,76.1 119.1,84.9 115.5,80 126.7,71.8 122.9,66.6 111.7,74.8 108.1,69.9 120.1,61.1 
		116.4,56 97.2,69.9 115.6,95 	"/>
	<path class="st0" d="M129.3,64.3c0.2,0.5,0.5,1.1,0.7,1.6c2.2,4.3,5.4,7.1,9.4,8.2c4,1.1,8.2,0.5,12.6-1.7c0.8-0.4,1.6-0.9,2.5-1.4
		c0.9-0.5,1.7-1,2.6-1.6c1.4-0.9,2.8-1.8,4.1-2.8c1.3-0.9,2.4-1.8,3.2-2.6l-7.6-14.7l-13.2,6.8l2.9,5.7L152,59l2.3,4.5
		c-0.6,0.6-1.2,1.1-1.8,1.5c-0.6,0.4-1.2,0.8-1.8,1.1c-2.5,1.2-4.8,1.5-6.9,0.7c-2.1-0.8-3.8-2.4-5.1-4.8c-0.1-0.1-0.1-0.2-0.2-0.4
		c-0.1-0.1-0.1-0.2-0.2-0.4c-1.1-2.3-1.7-4.7-1.7-7.1c0-2.4,1.2-4.2,3.6-5.5c0.2-0.1,0.3-0.1,0.5-0.2c0.2-0.1,0.3-0.1,0.5-0.2
		c1-0.4,2-0.5,3.1-0.4c1.1,0.1,2.1,0.7,2.9,1.7l7.8-4c-2.4-3.5-5-5.3-7.9-5.2c-2.9,0.1-6,1-9.3,2.7c-5.1,2.6-8.1,5.7-9.1,9.3
		c-1,3.6-1,7,0.1,10.1C128.9,63.2,129.1,63.8,129.3,64.3z"/>
	<polygon class="st0" points="323.1,203.7 343.9,214.2 318.4,213.1 312.9,224 340.7,237.9 344.2,231 323.7,220.7 348.9,221.6 
		354.4,210.8 326.6,196.8 	"/>
	<polygon class="st0" points="327.7,105.9 352.5,97.8 329.8,112.3 332.4,120 359.3,118.7 334.6,126.8 336.9,133.8 366.4,124.2 
		362.2,111.3 341.2,113.2 359.3,102.4 355,89.2 325.4,98.8 	"/>
	<path class="st0" d="M336,138.9l0.1,8.8l11.2-0.2l0.1,6.7c0,0.5,0,0.9,0.1,1.4s0.1,0.9,0.2,1.4c0.4,2.2,1.3,4.2,2.8,6
		c1.5,1.8,3.9,2.7,7.2,2.6c3.2-0.1,5.7-1,7.3-2.9c1.6-1.9,2.4-4.9,2.4-9.1l-0.3-15.2L336,138.9z M360.4,154.8
		c-0.6,1.1-1.5,1.6-2.8,1.7c-1.2,0-2.1-0.4-2.9-1.2c-0.8-0.8-1.2-2.1-1.2-3.8l-0.1-4l7.8-0.1l0,3.3
		C361.2,152.3,361,153.7,360.4,154.8z"/>
	<path class="st0" d="M334.4,169.3l5.1,3.3l-2.9,11.8l-6.1,0.6l-2.3,9.5l33.1-4.4l2.5-10.2l-27.2-19.5L334.4,169.3z M345.3,176.2
		l11.2,6.9l-13,0.6L345.3,176.2z"/>
	<path class="st0" d="M291.2,67.8c3.8,2,7,2.7,9.6,2.2c2.6-0.5,4.6-1.6,6.1-3.1c0.3-0.3,0.6-0.7,0.9-1.1c0.3-0.4,0.5-0.8,0.7-1.2
		l-8.1-4.2c-0.5,1-1.4,1.8-2.7,2.3c-1.2,0.5-2.7,0.3-4.3-0.6c-1.9-1-2.9-2.5-2.8-4.4c0-1.9,0.6-4.2,1.8-6.8c0.1-0.2,0.2-0.4,0.3-0.7
		c0.1-0.2,0.2-0.4,0.3-0.6c1.1-2.1,2.5-3.8,4-5.2c1.5-1.4,3.4-1.5,5.7-0.3c1.5,0.8,2.5,1.8,2.9,3c0.4,1.2,0.4,2.3-0.1,3.3l8.1,4.3
		c1.4-2.7,1.6-5.5,0.5-8.2c-1.1-2.8-3.9-5.4-8.6-7.8c-4.1-2.1-8-2.8-11.7-1.9c-3.7,0.9-6.9,3.9-9.6,9.2c-0.1,0.1-0.1,0.2-0.2,0.4
		c-0.1,0.1-0.1,0.3-0.2,0.4c-2,4.1-2.5,8-1.6,11.6C283.1,62.1,286.1,65.2,291.2,67.8z"/>
	<path class="st0" d="M314.3,64.8c-2.7,2.7-4.4,5.8-5.3,9.6c-0.9,3.7,0.8,8,5,12.9c3.2,3.7,6.3,5.7,9.5,5.9c3.1,0.2,5.9-0.3,8.4-1.6
		c0.9-0.4,1.7-0.9,2.4-1.5c0.8-0.5,1.4-1.1,2.1-1.6c4.8-4.1,7-8.1,6.6-11.8c-0.4-3.8-1.7-7.1-4.1-10.1c-0.1-0.1-0.2-0.2-0.3-0.3
		c-0.1-0.1-0.2-0.2-0.3-0.4c-4.4-5.1-8.6-7.3-12.5-6.7c-3.9,0.7-7.5,2.3-10.8,4.9l0,0c-0.1,0.1-0.2,0.2-0.4,0.3
		C314.5,64.6,314.4,64.7,314.3,64.8z M317.1,76.8c0.8-2.3,2.2-4.3,4.1-5.9c2-1.5,4.2-2.6,6.4-3.2c2.3-0.6,4.2,0.1,5.8,2
		c1.7,1.9,2.1,4,1.3,6.1c-0.8,2.1-2.2,4.1-4.3,5.9c-2.6,2.2-4.9,3.4-6.9,3.6c-2,0.2-3.8-0.5-5.2-2.2
		C316.7,81.2,316.3,79.1,317.1,76.8z"/>
	<polygon class="st0" points="92.4,292 85.4,302.3 76.7,296.4 83.8,286.1 76.5,281.1 59,306.7 66.2,311.7 73.3,301.4 81.9,307.4 
		74.8,317.6 82.1,322.6 99.7,297 	"/>
	<path class="st0" d="M199.1,320.7c0-0.2-0.1-0.3-0.1-0.4c-0.9-3.7-2.7-6.8-5.3-9.5c-2.7-2.7-7.2-3.5-13.7-2.5
		c-4.8,0.8-8.1,2.4-10,5c-1.8,2.5-2.8,5.2-3.1,8c-0.1,1-0.1,1.9,0,2.8c0.1,0.9,0.2,1.8,0.3,2.6c1,6.2,3.2,10.2,6.6,11.8
		c3.4,1.7,7,2.3,10.7,1.8c0.1,0,0.3,0,0.4-0.1c0.2,0,0.3-0.1,0.5-0.1c6.7-1.1,10.7-3.4,12.2-7.1c1.5-3.7,2-7.6,1.5-11.8l0,0
		C199.2,321.1,199.1,320.9,199.1,320.7z M189.6,330.2c-0.7,2.2-2.2,3.6-4.7,4c-2.5,0.4-4.5-0.3-5.9-2.1c-1.4-1.8-2.3-4.1-2.8-6.8
		c-0.5-3.3-0.4-5.9,0.5-7.8c0.9-1.9,2.4-2.9,4.6-3.3c2.5-0.4,4.5,0.4,6,2.3c1.5,1.9,2.5,4.1,2.9,6.6
		C190.5,325.6,190.2,327.9,189.6,330.2z"/>
	<polygon class="st0" points="118,328.9 115.2,303.5 103.5,299.8 94,329.4 101.4,331.7 108.5,309.9 111.4,334.9 123,338.7 
		132.5,309.1 125.1,306.7 	"/>
	<path class="st0" d="M153.6,322.4l-4-0.3c-1.7-0.1-2.7-0.8-3.1-2.2c-0.4-1.4-0.6-2.9-0.6-4.6c0-0.2,0-0.3,0-0.5c0-0.2,0-0.3,0-0.5
		c0-0.8,0-1.6-0.1-2.3c0-0.7-0.1-1.4-0.3-1.9l-9.4-0.6c0.2,0.8,0.4,1.6,0.5,2.6c0.1,0.9,0.1,1.9,0.2,2.8c0,0.1,0,0.1,0,0.2
		c0,0.1,0,0.1,0,0.2c0.1,2.3,0.4,4.4,1.1,6.4c0.6,2,2.4,3.1,5.5,3.4c-2,0.2-3.8,0.9-5.4,1.9c-1.5,1.1-2.4,2.9-2.5,5.4
		c-0.2,3.2,0.9,5.4,3.2,6.6c2.4,1.2,5,1.9,7.9,2.2c0.1,0,0.3,0,0.4,0c0.1,0,0.3,0,0.4,0.1l13.8,0.8l1.9-31l-8.8-0.5L153.6,322.4z
		 M152.9,335.2l-3.7-0.3c-1.3-0.1-2.5-0.4-3.3-1c-0.9-0.6-1.3-1.5-1.2-2.6c0.1-1.3,0.6-2.2,1.5-2.6c0.9-0.4,1.9-0.6,3-0.6
		c0.1,0,0.3,0,0.4,0c0.1,0,0.3,0,0.4,0.1l3.4,0.2L152.9,335.2z"/>
	<path class="st0" d="M210.6,301.7c-4,1.3-6.9,3-8.5,4.9c-1.6,1.9-2,4.3-1,7.2c0.7,2.2,2,3.6,3.8,4.2c1.8,0.6,3.6,0.9,5.5,0.8
		c0,0,0.1,0,0.1,0c0,0,0,0,0.1,0c-1.9,0.8-3.2,2-4,3.5c-0.8,1.5-0.9,3.1-0.4,4.8c0,0.1,0,0.1,0.1,0.1c0,0,0,0.1,0,0.1
		c0,0,0.1,0.1,0.1,0.1c0,0,0,0.1,0.1,0.1c0.8,2,2,3.3,3.6,3.9c1.5,0.6,3.1,0.9,4.7,0.8c1.2,0,2.4-0.2,3.4-0.5
		c1.1-0.3,1.8-0.5,2.3-0.6l13.2-4.4l-9.8-29.5L210.6,301.7z M212,313.5c-0.7-0.3-1.2-0.6-1.6-1.1c-0.1-0.2-0.3-0.3-0.4-0.5
		c-0.1-0.2-0.2-0.3-0.2-0.5c0-0.1-0.1-0.2-0.1-0.3c0-0.1,0-0.2,0-0.3c-0.1-0.6,0.1-1.3,0.5-1.9c0.4-0.7,1.2-1.2,2.5-1.6l4.5-1.5
		l2,6.1l-4.8,1.6C213.5,313.8,212.7,313.8,212,313.5z M219.1,325.1c-1.1,0.4-2.1,0.4-2.9,0c-0.8-0.4-1.4-0.9-1.6-1.7
		c-0.3-0.9-0.3-1.8,0.1-2.4c0.4-0.7,1.2-1.2,2.5-1.6l4.2-1.4l1.9,5.8L219.1,325.1z"/>
	<rect x="68" y="102.1" transform="matrix(0.6207 -0.784 0.784 0.6207 -64.7392 101.3421)" class="st0" width="8.8" height="31.1"/>
	<path class="st0" d="M63.2,288.1c0.1-0.1,0.3-0.2,0.4-0.3c0.1-0.1,0.2-0.2,0.4-0.3c3-2.3,5.2-5.2,6.5-8.8c1.4-3.6,0.3-8-3.3-13.5
		c-2.7-4.1-5.5-6.5-8.6-7.1c-3.1-0.6-5.9-0.5-8.6,0.4c-0.9,0.3-1.8,0.7-2.6,1.1c-0.8,0.4-1.6,0.9-2.3,1.3c-5.3,3.5-8,7.1-8.1,10.9
		c-0.1,3.8,0.8,7.3,2.7,10.5c0.1,0.1,0.2,0.2,0.2,0.4c0.1,0.1,0.2,0.3,0.3,0.4c3.7,5.7,7.5,8.4,11.5,8.3S59.6,290.3,63.2,288.1
		L63.2,288.1z M57.9,280.6c-2.2,1.2-4.5,2-6.8,2.3c-2.3,0.3-4.2-0.6-5.5-2.7c-1.4-2.1-1.5-4.2-0.5-6.2c1.1-2,2.8-3.8,5.1-5.3
		c2.8-1.8,5.3-2.7,7.3-2.7c2,0.1,3.7,1,4.9,2.8c1.4,2.1,1.5,4.3,0.4,6.4C61.7,277.5,60.1,279.2,57.9,280.6z"/>
	<polygon class="st0" points="74.9,140.7 53.4,115.6 48.9,123.5 65.1,141 42,135.9 37.1,144.8 69.7,150.1 	"/>
	<polygon class="st0" points="305.7,232.9 300.2,239.8 309.2,247 317,268.7 322.7,261.5 317,248.5 331,250.9 337.5,242.7 
		314.7,240.1 	"/>
	<polygon class="st0" points="52,219.8 26,218.8 52.3,213 52.6,204.9 26.9,196.9 52.8,197.9 53.1,190.4 22.1,189.3 21.6,202.8 
		42,208.3 21.2,212.2 20.7,226 51.7,227.2 	"/>
	<polygon class="st0" points="53,230.1 46.7,231.7 50.2,245.1 26.4,251.3 28.5,259.8 58.6,252.1 	"/>
</g>
</svg>
