<svg width="381" height="372" viewBox="0 0 381 372" fill="none" xmlns="http://www.w3.org/2000/svg">
<path d="M112.153 323.5C112.058 310.774 112.153 298.048 111.963 285.322C111.772 271.44 111.486 257.46 111.295 243.578C111.199 236.925 111.104 230.37 111.009 223.717C110.818 212.823 110.627 202.026 110.436 191.131C110.341 184.672 110.723 178.02 109.864 171.657C109.005 165.294 109.673 159.027 109.673 152.761C109.673 143.506 111.867 134.829 115.588 126.345C119.022 118.729 123.791 111.98 129.992 106.388C137.337 99.8327 145.541 94.241 154.413 89.6134C156.988 88.2637 159.278 86.3355 161.472 84.311C163.38 82.5756 163.38 79.9726 163.38 77.5624C163.38 68.1144 163.284 58.5699 163.284 49.1219C163.284 44.2051 163.284 39.1919 163.284 34.275C163.284 31.3828 161.663 29.6474 159.278 28.3941C158.515 28.0085 157.656 27.8157 156.893 27.5265C154.794 26.6588 153.84 25.4055 154.031 23.8629C154.222 21.9348 155.557 20.4886 157.656 20.1994C160.041 19.9102 162.426 19.621 164.811 19.621C178.929 19.621 193.047 19.5246 207.165 19.621C213.938 19.621 220.711 20.0066 227.484 20.2958C228.152 20.2958 228.82 20.4886 229.487 20.6815C231.205 21.1635 232.063 22.4168 232.254 24.0558C232.54 25.6947 231.682 26.948 230.251 27.7193C229.297 28.2013 228.247 28.4905 227.198 28.7798C224.432 29.6474 222.905 31.5756 222.905 34.3714C222.715 41.4093 222.524 48.4471 222.333 55.4849C222.142 61.4622 222.047 67.4395 221.951 73.4168C221.856 76.9839 222.047 80.551 223.859 83.6361C224.718 85.0822 225.958 86.6248 227.389 87.5888C233.303 91.3488 239.408 94.7231 245.323 98.5794C255.816 105.328 264.306 114.005 269.457 125.477C272.605 132.419 274.99 139.457 275.276 147.169C275.467 152.954 276.23 158.738 276.326 164.523C276.421 169.054 275.849 173.585 275.563 178.02C275.467 179.948 275.467 181.973 275.467 183.901C275.372 189.492 275.658 195.084 275.181 200.676C274.322 210.22 274.513 219.861 274.609 229.405C274.704 234.226 274.513 239.046 274.322 243.867C274.036 255.821 273.655 267.68 273.369 279.634C273.082 291.685 272.892 303.736 272.796 315.787C272.701 323.018 273.178 330.249 272.605 337.479C272.224 341.818 270.221 345.963 265.642 347.795C262.684 348.952 259.536 350.012 256.388 350.302C247.231 351.266 238.073 352.23 228.915 352.519C210.981 353.097 192.952 353.194 174.922 353.387C169.294 353.483 163.666 353.001 158.038 352.712C153.84 352.519 149.548 352.615 145.35 352.133C139.054 351.555 132.854 350.687 126.653 349.819C124.268 349.434 121.884 348.952 119.69 348.084C114.92 346.156 112.821 342.203 112.63 337.286C112.44 332.659 112.535 328.128 112.535 323.5C112.249 323.5 112.153 323.5 112.153 323.5Z" stroke="black" stroke-width="0.978947" stroke-miterlimit="10"/>
</svg>
