<svg width="271" height="541" viewBox="0 0 271 541" fill="none" xmlns="http://www.w3.org/2000/svg">
<path d="M4.91184 492.134C4.75752 471.548 4.91183 450.962 4.60321 430.377C4.29459 407.919 3.83165 385.306 3.52303 362.849C3.36872 352.088 3.21441 341.483 3.06009 330.722C2.75147 313.1 2.44285 295.633 2.13422 278.01C1.97991 267.561 2.59716 256.801 1.20835 246.508C-0.180451 236.215 0.89973 226.078 0.89973 215.941C0.89973 200.969 4.4489 186.934 10.4671 173.21C16.0223 160.889 23.7379 149.973 33.7681 140.927C45.6501 130.322 58.9209 121.277 73.2719 113.791C77.4384 111.608 81.1418 108.489 84.691 105.214C87.7772 102.407 87.7772 98.1961 87.7772 94.2973C87.7772 79.0138 87.6229 63.5744 87.6229 48.291C87.6229 40.3374 87.6229 32.2278 87.6229 24.2742C87.6229 19.5956 84.9996 16.7885 81.1418 14.7611C79.9073 14.1373 78.5185 13.8253 77.284 13.3575C73.8892 11.9539 72.3461 9.92651 72.6547 7.43126C72.9633 4.31219 75.1237 1.97289 78.5185 1.50503C82.3763 1.03717 86.2341 0.569313 90.0919 0.569313C112.93 0.569313 135.768 0.413359 158.606 0.569313C169.562 0.569313 180.519 1.19313 191.475 1.66099C192.555 1.66099 193.635 1.97289 194.715 2.2848C197.493 3.06457 198.882 5.09196 199.19 7.74317C199.653 10.3944 198.264 12.4218 195.95 13.6694C194.407 14.4492 192.709 14.917 191.012 15.3849C186.537 16.7885 184.068 19.9075 184.068 24.4302C183.759 35.8148 183.451 47.1994 183.142 58.5839C182.833 68.2531 182.679 77.9222 182.525 87.5913C182.37 93.3615 182.679 99.1318 185.611 104.122C187 106.462 189.006 108.957 191.32 110.516C200.888 116.599 210.764 122.057 220.331 128.295C237.305 139.212 251.039 153.248 259.372 171.806C264.464 183.035 268.322 194.419 268.785 206.896C269.094 216.253 270.328 225.61 270.482 234.967C270.637 242.297 269.711 249.627 269.248 256.801C269.094 259.92 269.094 263.195 269.094 266.314C268.939 275.359 269.402 284.404 268.631 293.45C267.242 308.889 267.55 324.484 267.705 339.924C267.859 347.721 267.55 355.519 267.242 363.317C266.779 382.655 266.162 401.837 265.699 421.175C265.236 440.67 264.927 460.164 264.773 479.658C264.619 491.354 265.39 503.051 264.464 514.747C263.847 521.765 260.606 528.471 253.199 531.434C248.416 533.306 243.323 535.021 238.231 535.489C223.417 537.049 208.603 538.608 193.789 539.076C164.779 540.012 135.614 540.168 106.449 540.48C97.3446 540.636 88.2402 539.856 79.1358 539.388C72.3461 539.076 65.402 539.232 58.6123 538.452C48.4277 537.517 38.3975 536.113 28.3672 534.709C24.5094 534.086 20.6516 533.306 17.1025 531.902C9.38688 528.783 5.99202 522.389 5.68339 514.435C5.37477 506.95 5.52908 499.62 5.52908 492.134C5.06615 492.134 4.91184 492.134 4.91184 492.134Z" stroke="black" stroke-miterlimit="10"/>
</svg>
